HIERARCHY
ROOT Hips
{
	OFFSET -3.958830 18.904000 13.208200
	CHANNELS 6 Xposition Yposition Zposition Zrotation Yrotation Xrotation 
	JOINT LHipJoint
	{
		OFFSET 0.000000 0.000000 0.000000
		CHANNELS 3 Zrotation Yrotation Xrotation
		JOINT LeftUpLeg
		{
			OFFSET 1.800000 -1.400000 0.085000
			CHANNELS 3 Zrotation Yrotation Xrotation
			JOINT LeftLeg
			{
				OFFSET 2.215000 -6.000000 0.000000
				CHANNELS 3 Zrotation Yrotation Xrotation
				JOINT LeftFoot
				{
					OFFSET 2.500000 -6.900000 0.000000
					CHANNELS 3 Zrotation Yrotation Xrotation
					JOINT LeftToeBase
					{
						OFFSET 0.200000 -0.500000 1.950000
						CHANNELS 3 Zrotation Yrotation Xrotation
						End Site
						{
							OFFSET 0.000000 0.000000 0.000000
						}
					}
				}
			}
		}
	}
	JOINT RHipJoint
	{
		OFFSET 0.000000 0.000000 0.000000
		CHANNELS 3 Zrotation Yrotation Xrotation
		JOINT RightUpLeg
		{
			OFFSET -1.800000 -1.400000 0.085000
			CHANNELS 3 Zrotation Yrotation Xrotation
			JOINT RightLeg
			{
				OFFSET -2.215000 -6.000000 0.000000
				CHANNELS 3 Zrotation Yrotation Xrotation
				JOINT RightFoot
				{
					OFFSET -2.500000 -6.900000 0.000000
					CHANNELS 3 Zrotation Yrotation Xrotation
					JOINT RightToeBase
					{
						OFFSET -0.200000 -0.500000 1.950000
						CHANNELS 3 Zrotation Yrotation Xrotation
						End Site
						{
							OFFSET 0.000000 0.000000 0.000000
						}
					}
				}
			}
		}
	}
	JOINT LowerBack
	{
		OFFSET 0.000000 0.000000 0.000000
		CHANNELS 3 Zrotation Yrotation Xrotation
		JOINT Spine
		{
			OFFSET -0.087000 1.940000 -0.288900
			CHANNELS 3 Zrotation Yrotation Xrotation
			JOINT Spine1
			{
				OFFSET 0.000000 1.950000 0.060000
				CHANNELS 3 Zrotation Yrotation Xrotation
				JOINT Neck
				{
					OFFSET 0.000000 0.000000 0.000000
					CHANNELS 3 Zrotation Yrotation Xrotation
					JOINT Neck1
					{
						OFFSET 0.000000 1.600000 0.340000
						CHANNELS 3 Zrotation Yrotation Xrotation
						JOINT Head
						{
							OFFSET 0.000000 1.667000 -0.240000
							CHANNELS 3 Zrotation Yrotation Xrotation
							End Site
							{
								OFFSET 0.000000 0.000000 0.000000
							}
						}
					}
				}
				JOINT LeftShoulder
				{
					OFFSET 0.000000 0.000000 0.000000
					CHANNELS 3 Zrotation Yrotation Xrotation
					JOINT LeftArm
					{
						OFFSET 2.700000 1.550000 -0.730000
						CHANNELS 3 Zrotation Yrotation Xrotation
						JOINT LeftForeArm
						{
							OFFSET 5.450000 0.000000 0.000000
							CHANNELS 3 Zrotation Yrotation Xrotation
							JOINT LeftHand
							{
								OFFSET 3.450000 0.000000 0.000000
								CHANNELS 3 Zrotation Yrotation Xrotation
								JOINT LeftHandIndex1
								{
									OFFSET 0.750000 0.000000 0.000000
									CHANNELS 3 Zrotation Yrotation Xrotation
									End Site
									{
										OFFSET 0.000000 0.000000 0.000000
									}
								}
							}
						}
					}
				}
				JOINT RightShoulder
				{
					OFFSET 0.000000 0.000000 0.000000
					CHANNELS 3 Zrotation Yrotation Xrotation
					JOINT RightArm
					{
						OFFSET -2.700000 1.550000 -0.730000
						CHANNELS 3 Zrotation Yrotation Xrotation
						JOINT RightForeArm
						{
							OFFSET -5.450000 0.000000 0.000000
							CHANNELS 3 Zrotation Yrotation Xrotation
							JOINT RightHand
							{
								OFFSET -3.450000 0.000000 0.000000
								CHANNELS 3 Zrotation Yrotation Xrotation
								JOINT RightHandIndex1
								{
									OFFSET -0.750000 0.000000 0.000000
									CHANNELS 3 Zrotation Yrotation Xrotation
									End Site
									{
										OFFSET 0.000000 0.000000 0.000000
									}
								}
							}
						}
					}
				}
			}
		}
	}
}
MOTION
Frames: 12
Frame Time: 0.016667
0.232570 16.845960 -0.996380 -4.776226 -3.191361 2.900779 -14.925427 12.999704 3.078668 1.588468 -0.290099 -3.547605 -6.757302 4.484769 4.739782 -0.710442 4.029283 3.417496 0.760260 0.205240 0.589580 18.529428 -10.921221 3.232927 0.937759 -0.621244 -3.420690 6.277949 -4.524759 3.590035 -0.652359 -3.577847 3.490438 0.159730 0.075190 0.268060 -4.249966 -1.008637 -7.818889 12.997043 0.315171 5.591251 -6.573108 1.241588 7.819644 4.307421 -3.106884 -13.867832 -8.210687 4.851158 45.977973 -1.429870 2.502530 -16.821370 -33.830550 -21.298575 7.979468 -46.553073 -4.194454 -3.396395 -13.069819 -21.389465 -0.349523 -3.338265 2.789938 1.065840 -0.026930 0.167890 0.345120 25.236133 25.959121 10.738152 53.006166 9.737784 -4.852971 16.096696 24.413152 1.308429 1.794164 -1.283293 -0.300080 0.293350 -0.192060 -0.435090 
0.233400 16.845910 -0.993200 -4.807973 -3.208838 2.926546 -14.919931 12.985757 3.074513 1.557518 -0.293350 -3.502012 -6.694799 4.458280 4.644282 -0.706080 4.023800 3.417972 0.759530 0.202980 0.590850 18.539042 -10.920961 3.229879 0.938326 -0.623294 -3.410618 6.286499 -4.519860 3.564488 -0.651287 -3.587478 3.478210 0.159280 0.073020 0.272520 -4.272602 -0.987538 -7.802875 13.132933 0.342289 5.441597 -6.636408 1.248574 7.900356 4.311204 -3.118274 -13.841890 -8.228260 4.859110 45.863022 -1.526950 2.525750 -16.457150 -33.869440 -21.315425 7.980269 -46.516206 -4.255502 -3.332028 -13.042669 -21.244805 -0.349452 -3.340244 2.803907 1.057610 -0.025310 0.165190 0.342530 25.252824 25.958710 10.743616 53.073345 9.724185 -4.862250 16.052933 24.466156 1.291728 1.799695 -1.296108 -0.295860 0.281690 -0.192870 -0.433790 
0.233900 16.845040 -0.987920 -4.853944 -3.236849 2.960110 -14.921116 12.959898 3.065844 1.652734 -0.280048 -3.409127 -6.818799 4.473095 4.500478 -0.708391 4.043798 3.408513 0.751820 0.196620 0.576780 18.546094 -10.914941 3.223433 0.934641 -0.633786 -3.349861 6.281170 -4.508816 3.450192 -0.638777 -3.613334 3.476573 0.164010 0.077110 0.266420 -4.282049 -0.954313 -7.775623 13.155317 0.416105 5.154405 -6.544945 1.245187 8.095569 4.330668 -3.086390 -13.785565 -8.132129 4.803178 45.655495 -1.850470 2.562460 -15.671890 -33.897740 -21.367138 7.983629 -46.598680 -4.395264 -3.239183 -12.840829 -21.096482 -0.371869 -3.353096 2.814550 1.041180 -0.011840 0.145460 0.341280 25.256963 25.963796 10.746883 52.966656 9.712647 -4.827433 16.190130 24.530168 1.304698 1.790648 -1.312420 -0.300820 0.273630 -0.186710 -0.437090 
0.235170 16.848470 -0.983470 -4.824501 -3.346987 2.885979 -14.922347 12.955881 3.080836 1.669130 -0.253393 -3.177338 -6.888477 4.462032 4.233490 -0.692745 4.051101 3.400854 0.759470 0.207230 0.583520 18.545337 -10.911465 3.217955 0.847095 -0.653847 -3.238322 6.253967 -4.515068 3.468603 -0.647318 -3.615715 3.471271 0.164550 0.065220 0.269430 -4.278230 -0.960398 -7.784240 13.133072 0.472587 5.118737 -6.494715 1.290717 8.123801 4.326984 -3.170548 -13.864102 -8.382309 4.921846 46.191402 -1.790460 2.561440 -15.783330 -34.044865 -21.368611 7.998793 -46.537436 -4.367034 -3.267911 -12.919770 -21.277918 -0.345562 -3.342759 2.820952 1.041810 -0.020550 0.156300 0.339730 25.432938 26.047953 10.809946 52.731477 9.651287 -4.796178 16.373296 24.510244 1.353761 1.796269 -1.311547 -0.289820 0.267950 -0.191390 -0.434990 
0.238300 16.850190 -0.979430 -4.790347 -3.486381 2.887036 -14.914479 12.935262 3.091875 1.670130 -0.237605 -3.020574 -7.054775 4.464533 3.965683 -0.714006 4.088654 3.389061 0.750760 0.189290 0.572060 18.556873 -10.915857 3.200200 0.723360 -0.647099 -3.246068 6.243964 -4.543250 3.614154 -0.637545 -3.629267 3.472573 0.165030 0.076240 0.263510 -4.305853 -0.932223 -7.766728 13.281716 0.495628 4.994224 -6.618588 1.323817 8.140027 4.296126 -3.321902 -13.793858 -8.682351 4.977531 46.170674 -1.736320 2.389450 -15.721090 -33.982702 -21.225199 7.932321 -46.618701 -4.404014 -3.258372 -12.897892 -21.474356 -0.356740 -3.353162 2.810342 1.052750 -0.014750 0.139960 0.335250 25.419123 25.994631 10.770171 52.737085 9.824083 -4.642260 16.415190 24.358004 1.379332 1.781373 -1.303091 -0.307970 0.277570 -0.174170 -0.444680 
0.242290 16.852270 -0.977770 -4.819154 -3.694699 2.842178 -14.902085 12.918065 3.106339 1.701649 -0.222475 -2.802275 -7.092620 4.430864 3.621267 -0.723547 4.108565 3.382396 0.755170 0.188670 0.575410 18.570521 -10.929637 3.183883 0.670170 -0.644692 -3.266306 6.082488 -4.551508 3.852169 -0.637580 -3.625392 3.469881 0.169940 0.075540 0.262800 -4.341930 -0.893162 -7.757119 13.540070 0.514306 4.974864 -6.761208 1.372203 8.342829 4.315358 -3.517615 -13.854606 -9.058342 5.088318 46.209075 -1.644480 2.266080 -16.019710 -33.965667 -21.339809 7.965892 -46.719801 -4.477525 -3.324871 -12.688706 -21.727719 -0.405736 -3.349756 2.804928 1.064380 -0.019210 0.140400 0.333440 25.363961 26.287342 10.832844 52.605174 10.121828 -4.481061 16.360725 24.134963 1.382348 1.775843 -1.296832 -0.314650 0.284240 -0.169590 -0.449930 
0.244890 16.854330 -0.977560 -4.849588 -3.904137 2.823288 -14.892974 12.900102 3.115846 1.707652 -0.205817 -2.610988 -7.104704 4.397982 3.305114 -0.730688 4.127089 3.380836 0.754480 0.185550 0.573710 18.582928 -10.935126 3.170629 0.630230 -0.636661 -3.320162 5.996161 -4.554172 3.970767 -0.635805 -3.618619 3.474487 0.172600 0.084230 0.259450 -4.371826 -0.864771 -7.743872 13.748682 0.547433 4.947234 -6.893600 1.432658 8.535195 4.300797 -3.663494 -13.896839 -9.341932 5.247053 46.168041 -1.397320 2.204010 -16.261580 -33.693665 -21.456847 8.000317 -47.031916 -4.681336 -3.355986 -12.366548 -22.004950 -0.470374 -3.354205 2.789857 1.072930 -0.018770 0.137900 0.334110 25.123542 26.504358 10.868037 52.678104 10.439208 -4.365966 16.331635 24.078499 1.386879 1.769406 -1.286196 -0.323940 0.298640 -0.163630 -0.451990 
0.248830 16.856060 -0.979890 -4.898242 -3.901296 2.814473 -14.885035 12.894195 3.116447 1.678011 -0.195327 -2.556807 -6.956113 4.352661 3.128034 -0.734836 4.116783 3.387703 0.743610 0.184290 0.560600 18.592307 -10.938407 3.164521 0.599421 -0.631974 -3.368582 6.076514 -4.576099 4.083544 -0.629836 -3.619075 3.478176 0.174600 0.095890 0.250180 -4.398158 -0.855620 -7.734633 13.966070 0.487739 4.972113 -7.036989 1.408723 8.755284 4.300386 -3.761996 -13.969368 -9.506820 5.363262 45.890555 -1.232440 2.199890 -16.385950 -33.447288 -21.698720 8.105021 -47.216135 -4.848357 -3.474540 -12.202527 -22.533629 -0.494290 -3.359239 2.778780 1.067640 -0.014130 0.131630 0.331880 24.873118 26.796516 10.914183 52.609892 10.764442 -4.260804 16.507024 24.113382 1.420084 1.767674 -1.276024 -0.330710 0.313950 -0.154770 -0.447530 
0.247080 16.858740 -0.983300 -4.682210 -4.117459 2.723785 -14.897156 12.894558 3.126161 1.464724 -0.162597 -2.427444 -6.885892 4.339991 3.102843 -0.727479 4.116924 3.391873 0.743580 0.191570 0.553780 18.579238 -10.945223 3.152813 0.342267 -0.625944 -3.392492 6.133845 -4.596805 4.151096 -0.630938 -3.622615 3.480811 0.177130 0.107240 0.252810 -4.359847 -0.857234 -7.735984 13.552029 0.585494 5.050086 -6.874307 1.526152 9.123329 4.231443 -3.843100 -14.144037 -9.682402 5.448933 45.797227 -0.973710 2.125090 -16.568230 -33.163535 -22.141942 8.244710 -47.374241 -5.173390 -3.523583 -11.953279 -22.932791 -0.537215 -3.363294 2.771700 1.063290 -0.009940 0.134770 0.337880 24.816484 27.347522 11.090490 52.448330 11.029119 -4.279861 16.362747 24.306531 1.398190 1.760737 -1.270833 -0.327720 0.325900 -0.153540 -0.438380 
0.247450 16.862690 -0.986430 -4.669147 -4.131279 2.633868 -14.891544 12.907371 3.122065 1.533016 -0.148120 -2.428803 -6.917816 4.376128 3.285504 -0.711731 4.114629 3.396515 0.746990 0.209010 0.555430 18.581215 -10.955401 3.153899 0.394959 -0.645426 -3.356128 5.991669 -4.589953 4.264262 -0.642343 -3.604532 3.486081 0.177730 0.111570 0.253610 -4.369370 -0.862968 -7.738400 13.611457 0.512029 5.220732 -6.958305 1.507466 9.261849 4.195793 -3.976121 -14.211988 -9.973903 5.499331 45.827608 -0.716080 2.004040 -17.298890 -33.015281 -22.297767 8.293812 -47.488167 -5.414803 -3.602895 -11.832194 -23.378681 -0.546295 -3.356937 2.756186 1.062830 -0.016710 0.151860 0.342840 24.749497 27.604651 11.140775 52.501478 11.355529 -4.253943 16.230609 24.474730 1.392293 1.767863 -1.254285 -0.318440 0.343760 -0.158730 -0.423850 
0.253780 16.867940 -0.989020 -4.928891 -4.052265 2.645439 -14.855949 12.906844 3.097560 1.930994 -0.158832 -2.593215 -7.168952 4.468587 3.590146 -0.713866 4.133117 3.396775 0.748640 0.221890 0.543480 18.614973 -10.968785 3.161132 0.603264 -0.656339 -3.383603 5.945253 -4.589202 4.353786 -0.643997 -3.598261 3.503700 0.185660 0.121960 0.241300 -4.469692 -0.833828 -7.717423 14.440733 0.327251 5.259949 -7.424768 1.406635 9.332459 4.197871 -4.213251 -14.212663 -10.465986 5.558120 45.638528 -0.645080 1.808380 -17.629680 -32.958078 -22.366958 8.326789 -47.574515 -5.571432 -3.719956 -11.849545 -24.006228 -0.524667 -3.348197 2.742669 1.063050 -0.015640 0.150940 0.355220 24.600065 27.769272 11.136003 52.845758 11.742711 -4.161190 15.857228 24.549542 1.336114 1.760143 -1.243923 -0.324450 0.366390 -0.162130 -0.416120 
0.260690 16.873110 -0.990880 -5.032253 -4.233068 2.656985 -14.835012 12.906767 3.088299 2.051559 -0.165656 -2.586618 -7.167567 4.484213 3.705788 -0.703195 4.125103 3.394869 0.763500 0.243480 0.555050 18.634878 -10.987652 3.150446 0.658466 -0.643374 -3.519771 5.747253 -4.570245 4.608080 -0.649722 -3.573437 3.501302 0.192100 0.110540 0.245300 -4.526222 -0.803700 -7.689778 14.886337 0.275024 5.297229 -7.692308 1.394624 9.295396 4.172102 -4.420357 -14.063456 -10.873157 5.744537 45.512410 -0.440330 1.813130 -18.175570 -32.971744 -22.128815 8.214048 -47.739043 -5.877316 -3.715078 -11.800124 -24.400047 -0.508025 -3.337191 2.752321 1.061480 -0.027410 0.165110 0.356330 24.611780 27.625022 10.998314 53.042822 12.172735 -3.940586 15.719790 24.474184 1.338503 1.773318 -1.245198 -0.310590 0.363310 -0.172170 -0.409820 
